Coordinates
version=1
nRows=13
nColumns=34
inDegrees=no

Units are S.I. units (second, meters, Newtons, ...)
If the header above contains a line with 'inDegrees', this indicates whether rotational values are in degrees (yes) or radians (no).

endheader
time	pelvis_tilt	pelvis_list	pelvis_rotation	pelvis_tx	pelvis_ty	pelvis_tz	hip_flexion_r	hip_adduction_r	hip_rotation_r	knee_angle_r	ankle_angle_r	subtalar_angle_r	mtp_angle_r	hip_flexion_l	hip_adduction_l	hip_rotation_l	knee_angle_l	ankle_angle_l	subtalar_angle_l	mtp_angle_l	lumbar_extension	lumbar_bending	lumbar_rotation	arm_flex_r	arm_add_r	arm_rot_r	elbow_flex_r	pro_sup_r	arm_flex_l	arm_add_l	arm_rot_l	elbow_flex_l	pro_sup_l
0.65	-0.340797	0.0144999	0.0188521	-1.13565	1.21471	-0.578544	0.617878	-0.0472815	-0.0822157	0.662251	0.546036	0.130791	0	0.625084	-0.0224932	-0.048224	0.658323	0.526238	0.179832	0	-0.269658	0.0318312	-0.0762352	0.0738802	-0.217762	0.0410677	0.762161	1.96629	0.0353967	-0.128568	-0.0338377	0.489177	1.89714
0.66	-0.343448	0.0140146	0.0163999	-1.13539	1.21101	-0.578243	0.632569	-0.0454638	-0.0769673	0.685748	0.556189	0.120501	0	0.640643	-0.0255376	-0.049896	0.684334	0.536898	0.171176	0	-0.278269	0.0338951	-0.0737217	0.115673	-0.21474	0.0568637	0.767874	1.96865	0.0800935	-0.128196	-0.00658223	0.499824	1.893
0.67	-0.345066	0.0145269	0.0132896	-1.13495	1.20717	-0.577997	0.646414	-0.0436794	-0.0692031	0.710029	0.566062	0.107547	0	0.654858	-0.0283106	-0.0532302	0.710597	0.547162	0.161787	0	-0.287313	0.0346991	-0.0704464	0.159588	-0.209623	0.0708442	0.774874	1.96347	0.127892	-0.126062	0.0161138	0.512219	1.88959
0.68	-0.346898	0.0147036	0.0109191	-1.13438	1.20313	-0.577821	0.660246	-0.0419598	-0.0622864	0.734442	0.575642	0.0938657	0	0.669853	-0.0312827	-0.0556484	0.7381	0.556961	0.152015	0	-0.295429	0.0361592	-0.0687739	0.206018	-0.203109	0.0854818	0.783472	1.95637	0.177411	-0.121315	0.0307965	0.527039	1.88786
0.69	-0.349679	0.0140246	0.00979405	-1.13376	1.19891	-0.57771	0.674727	-0.0403774	-0.0574489	0.758674	0.585142	0.0799538	0	0.686689	-0.0339178	-0.0547133	0.76685	0.565137	0.139329	0	-0.301982	0.0389807	-0.0690723	0.255076	-0.196287	0.104791	0.79405	1.95019	0.228165	-0.115752	0.0434031	0.544728	1.88738
0.7	-0.352464	0.0129167	0.00955393	-1.13304	1.19462	-0.577772	0.688776	-0.0389804	-0.0532378	0.782653	0.594477	0.0647811	0	0.70388	-0.0355151	-0.0506525	0.796109	0.571116	0.122692	0	-0.308026	0.0426407	-0.0699612	0.306491	-0.189379	0.127425	0.806198	1.94282	0.280863	-0.110838	0.0595335	0.564776	1.88891
0.71	-0.354673	0.0117493	0.00929667	-1.13209	1.19031	-0.577944	0.701834	-0.0376253	-0.0489879	0.806556	0.603727	0.0492166	0	0.720434	-0.0367668	-0.0455766	0.825723	0.57538	0.104027	0	-0.314016	0.0463667	-0.0703631	0.359638	-0.181631	0.148222	0.819587	1.93532	0.335235	-0.106593	0.0785672	0.588035	1.89291
0.72	-0.356487	0.0108875	0.00849807	-1.13087	1.18592	-0.578039	0.714183	-0.0365674	-0.0452045	0.830587	0.613627	0.0349808	0	0.73642	-0.0384263	-0.0412837	0.855831	0.578482	0.0848906	0	-0.319567	0.0493271	-0.0703389	0.414091	-0.17263	0.166229	0.83422	1.93112	0.390632	-0.102373	0.0984307	0.615567	1.89666
0.73	-0.357921	0.0104365	0.00739037	-1.12937	1.18145	-0.578028	0.725676	-0.036006	-0.0418375	0.854565	0.624374	0.0219105	0	0.751552	-0.0404396	-0.0384298	0.885892	0.580745	0.065079	0	-0.32471	0.0513231	-0.0702108	0.469878	-0.162769	0.184203	0.849899	1.92995	0.447477	-0.0973032	0.118037	0.646167	1.89691
0.74	-0.359285	0.00987605	0.00565057	-1.1276	1.17696	-0.577904	0.73642	-0.0348113	-0.0379031	0.877899	0.634887	0.00877679	0	0.765851	-0.0435451	-0.0372047	0.91535	0.582631	0.0450684	0	-0.329191	0.0528161	-0.0694105	0.527265	-0.151651	0.202262	0.865543	1.9291	0.50592	-0.0912722	0.136771	0.67848	1.89261
0.75	-0.360997	0.00904114	0.00269659	-1.12556	1.17245	-0.57762	0.746771	-0.0317635	-0.0322126	0.900148	0.644172	-0.00596429	0	0.779835	-0.0484541	-0.0371371	0.944521	0.584422	0.0262935	0	-0.332388	0.0538928	-0.06735	0.586556	-0.137775	0.217047	0.879371	1.92843	0.565085	-0.0857528	0.15586	0.7133	1.88664
0.76	-0.362747	0.00867586	-0.000842189	-1.12319	1.1679	-0.57727	0.756386	-0.0273326	-0.0239004	0.921492	0.652448	-0.0248308	0	0.79325	-0.0539564	-0.0375982	0.973519	0.585927	0.00812639	0	-0.334373	0.0541576	-0.0647227	0.647344	-0.120937	0.226557	0.891368	1.93166	0.624504	-0.0823004	0.176255	0.75114	1.88828
0.77	-0.3643	0.009058	-0.00423637	-1.12044	1.16338	-0.576958	0.765193	-0.023182	-0.0146132	0.942574	0.660723	-0.0469116	0	0.805382	-0.0588737	-0.0388029	1.0013	0.586883	-0.0119537	0	-0.335336	0.0536961	-0.0621506	0.708508	-0.10327	0.233895	0.903808	1.9415	0.684855	-0.0797711	0.194304	0.788961	1.90671
